<svg width="18" height="19" viewBox="0 0 18 19" fill="none" xmlns="http://www.w3.org/2000/svg">
<path d="M7.92752 0.443695L0.42752 7.94369C0.290959 8.08635 0.183912 8.25457 0.11252 8.43869C-0.0375068 8.80389 -0.0375068 9.2135 0.11252 9.57869C0.183912 9.76282 0.290959 9.93104 0.42752 10.0737L7.92752 17.5737C8.06738 17.7136 8.23341 17.8245 8.41615 17.9002C8.59888 17.9759 8.79473 18.0148 8.99252 18.0148C9.39197 18.0148 9.77507 17.8561 10.0575 17.5737C10.34 17.2912 10.4987 16.9081 10.4987 16.5087C10.4987 16.1092 10.34 15.7261 10.0575 15.4437L5.10752 10.5087H16.4925C16.8903 10.5087 17.2719 10.3507 17.5532 10.0694C17.8345 9.78805 17.9925 9.40652 17.9925 9.00869C17.9925 8.61087 17.8345 8.22934 17.5532 7.94803C17.2719 7.66673 16.8903 7.50869 16.4925 7.50869H5.10752L10.0575 2.57369C10.1981 2.43425 10.3097 2.26835 10.3859 2.08556C10.462 1.90277 10.5012 1.70671 10.5012 1.50869C10.5012 1.31067 10.462 1.11462 10.3859 0.931828C10.3097 0.749039 10.1981 0.583139 10.0575 0.443695C9.91808 0.303102 9.75217 0.191507 9.56939 0.115355C9.3866 0.0392017 9.19054 -3.8147e-06 8.99252 -3.8147e-06C8.7945 -3.8147e-06 8.59844 0.0392017 8.41566 0.115355C8.23287 0.191507 8.06697 0.303102 7.92752 0.443695Z" fill="#F8F8F8"/>
</svg>
