<svg width="35" height="44" viewBox="0 0 35 44" fill="none" xmlns="http://www.w3.org/2000/svg">
<path d="M0.639844 28.4375L14.2188 42.0164C15.8844 43.682 18.7891 43.682 20.4547 42.0164L34.0336 28.4375C34.8766 27.5945 34.8766 26.2234 34.0336 25.3703C33.1906 24.5273 31.8195 24.5273 30.9664 25.3703L19.5 36.7453V2.16328C19.5 0.964844 18.525 0 17.3367 0C16.1484 0 15.1734 0.964844 15.1734 2.16328V36.8266L3.70703 25.3703C3.28047 24.9437 2.73203 24.7406 2.17344 24.7406C1.61484 24.7406 1.06641 24.9539 0.639844 25.3703C-0.213281 26.2133 -0.213281 27.5742 0.639844 28.4375Z" fill="#415A77"/>
</svg>
